<svg width="24" height="17" viewBox="0 0 24 17" fill="none" xmlns="http://www.w3.org/2000/svg">
<path d="M18.9385 16.6353C19.2124 16.9092 19.6523 16.9175 19.9263 16.6353C20.2002 16.3447 20.2002 15.9214 19.9263 15.6475L5.48291 1.2124C5.20898 0.938477 4.76074 0.938477 4.48682 1.2124C4.22119 1.47803 4.22119 1.93457 4.48682 2.2002L18.9385 16.6353ZM12.2148 1.70215C10.7622 1.70215 9.43408 1.94287 8.21387 2.34131L10.0234 4.15918C10.7207 3.97656 11.4429 3.86865 12.2148 3.86865C17.1953 3.86865 20.9722 8.08545 20.9722 9.02344C20.9722 9.62939 19.8599 11.0903 18.0503 12.2939L19.7188 13.9707C22.2754 12.2275 23.7446 9.98633 23.7446 9.02344C23.7446 7.32178 19.2207 1.70215 12.2148 1.70215ZM12.2148 16.353C13.7256 16.353 15.1118 16.0957 16.3652 15.6807L14.5557 13.8628C13.8169 14.0537 13.0449 14.1782 12.2148 14.1782C7.23438 14.1782 3.45752 10.1523 3.45752 9.02344C3.45752 8.50879 4.62793 6.97314 6.52881 5.72803L4.83545 4.03467C2.2124 5.78613 0.693359 8.04395 0.693359 9.02344C0.693359 10.7251 5.31689 16.353 12.2148 16.353ZM16.1079 10.1855C16.249 9.82861 16.332 9.43018 16.332 9.01514C16.332 6.74072 14.5059 4.92285 12.2231 4.92285C11.8081 4.92285 11.418 4.98926 11.0527 5.13037L16.1079 10.1855ZM12.2148 13.124C12.6797 13.124 13.1196 13.0327 13.5181 12.8667L8.37158 7.72021C8.19727 8.11865 8.10596 8.55029 8.10596 9.02344C8.10596 11.2563 9.93213 13.124 12.2148 13.124Z" fill="#007AFF"/>
</svg>
