<svg width="24" height="16" viewBox="0 0 24 16" fill="none" xmlns="http://www.w3.org/2000/svg">
<path d="M12.2148 15.353C19.2207 15.353 23.7446 9.7251 23.7446 8.02344C23.7446 6.32178 19.2124 0.702148 12.2148 0.702148C5.3252 0.702148 0.693359 6.32178 0.693359 8.02344C0.693359 9.7251 5.31689 15.353 12.2148 15.353ZM12.2148 13.1782C7.23438 13.1782 3.45752 9.15234 3.45752 8.02344C3.45752 7.08545 7.23438 2.86865 12.2148 2.86865C17.187 2.86865 20.9722 7.08545 20.9722 8.02344C20.9722 9.15234 17.187 13.1782 12.2148 13.1782ZM12.2231 12.124C14.5059 12.124 16.332 10.2563 16.332 8.02344C16.332 5.74072 14.5059 3.92285 12.2231 3.92285C9.93213 3.92285 8.09766 5.73242 8.10596 8.02344C8.11426 10.2563 9.93213 12.124 12.2231 12.124ZM12.2148 9.26855C11.5259 9.26855 10.9697 8.6958 10.9697 8.02344C10.9697 7.34277 11.5259 6.77832 12.2148 6.77832C12.9038 6.77832 13.46 7.34277 13.46 8.02344C13.46 8.6958 12.9038 9.26855 12.2148 9.26855Z" fill="#007AFF"/>
</svg>
